<svg id="svg" version="1.1" xmlns="http://www.w3.org/2000/svg" xmlns:xlink="http://www.w3.org/1999/xlink" width="400" height="249.7560975609756" viewBox="0, 0, 400,249.7560975609756"><g id="svgg"><path id="path0" d="M166.271 47.269 C 161.017 48.508,164.264 45.578,127.585 82.181 C 109.605 100.123,94.471 115.368,93.952 116.058 C 90.195 121.062,89.936 128.303,93.343 133.097 C 94.609 134.878,159.039 199.254,160.698 200.395 C 161.481 200.934,162.289 201.374,162.495 201.374 C 162.701 201.374,162.930 201.473,163.005 201.594 C 163.148 201.826,163.246 201.855,166.021 202.479 C 168.451 203.026,171.290 202.885,173.267 202.118 C 173.542 202.011,174.160 201.781,174.641 201.606 C 175.122 201.430,175.814 201.082,176.178 200.831 C 176.543 200.580,176.949 200.375,177.079 200.375 C 177.612 200.375,181.124 196.644,181.976 195.173 C 184.611 190.623,184.817 185.407,182.550 180.637 C 181.627 178.695,181.451 178.511,159.588 156.659 C 150.965 148.041,143.910 140.860,143.910 140.701 C 143.910 140.483,162.452 140.412,219.301 140.412 C 299.494 140.412,295.771 140.465,299.188 139.285 C 299.875 139.048,300.736 138.643,301.100 138.384 C 301.465 138.125,301.846 137.914,301.947 137.914 C 302.048 137.914,302.859 137.274,303.749 136.493 C 310.343 130.704,310.818 120.877,304.820 114.338 C 303.395 112.783,299.621 110.431,298.553 110.431 C 298.300 110.431,298.031 110.330,297.955 110.208 C 297.615 109.657,291.517 109.603,219.988 109.520 C 178.351 109.472,144.136 109.377,143.955 109.308 C 143.755 109.233,150.985 101.816,162.256 90.535 C 172.503 80.279,180.887 71.847,180.887 71.799 C 180.887 71.750,181.073 71.493,181.301 71.228 C 181.923 70.501,183.283 67.912,183.484 67.072 C 185.018 60.659,183.738 55.799,179.388 51.522 C 178.098 50.254,175.580 48.470,175.079 48.470 C 174.893 48.470,174.634 48.377,174.503 48.263 C 174.261 48.052,173.190 47.734,171.077 47.246 C 169.689 46.925,167.690 46.935,166.271 47.269 " stroke="none" fill="#040404" fill-rule="evenodd"></path><path id="path1" d="M165.268 46.977 C 165.164 47.145,165.478 47.176,166.190 47.067 C 167.618 46.848,167.714 46.721,166.452 46.721 C 165.888 46.721,165.355 46.836,165.268 46.977 M169.915 46.811 C 169.972 46.861,170.519 46.966,171.130 47.044 C 171.849 47.136,172.114 47.105,171.880 46.957 C 171.546 46.746,169.680 46.608,169.915 46.811 M163.523 47.470 C 163.340 47.766,163.585 47.766,164.272 47.470 C 164.754 47.263,164.752 47.255,164.225 47.238 C 163.924 47.228,163.608 47.333,163.523 47.470 M176.411 48.792 C 176.468 48.832,176.964 49.177,177.514 49.560 L 178.513 50.255 177.648 49.487 C 177.173 49.065,176.676 48.720,176.545 48.720 C 176.414 48.720,176.353 48.752,176.411 48.792 M179.781 51.451 C 180.341 52.079,181.100 52.966,181.468 53.423 C 181.835 53.880,182.136 54.154,182.136 54.031 C 182.136 53.908,181.377 53.020,180.450 52.058 C 179.522 51.096,179.221 50.823,179.781 51.451 M148.279 60.725 C 142.790 66.214,138.375 70.706,138.468 70.706 C 138.682 70.706,158.444 50.928,158.338 50.822 C 158.295 50.779,153.768 55.235,148.279 60.725 M182.722 55.641 C 183.040 56.300,183.432 57.121,183.594 57.464 L 183.888 58.089 183.729 57.464 C 183.511 56.609,182.626 54.739,182.361 54.576 C 182.242 54.502,182.405 54.981,182.722 55.641 M184.260 62.571 C 184.260 64.408,184.342 65.781,184.443 65.623 C 184.672 65.263,184.661 60.242,184.430 59.660 C 184.336 59.424,184.260 60.735,184.260 62.571 M183.597 67.466 C 183.370 68.149,183.228 68.707,183.281 68.707 C 183.468 68.707,184.152 66.854,184.081 66.541 C 184.042 66.367,183.824 66.783,183.597 67.466 M181.886 70.963 C 181.886 71.150,173.371 79.854,162.964 90.305 L 144.041 109.307 162.105 91.318 C 180.010 73.487,182.346 71.082,182.043 70.779 C 181.957 70.693,181.886 70.776,181.886 70.963 M134.291 74.706 C 132.230 76.764,130.608 78.449,130.687 78.450 C 130.766 78.450,132.538 76.765,134.625 74.703 C 136.711 72.642,138.333 70.958,138.229 70.960 C 138.124 70.962,136.352 72.648,134.291 74.706 M129.046 79.948 C 128.796 80.224,128.708 80.450,128.850 80.450 C 129.164 80.450,129.788 79.736,129.620 79.568 C 129.554 79.501,129.295 79.673,129.046 79.948 M113.799 95.255 C 106.102 102.983,99.525 109.639,99.184 110.044 C 98.608 110.730,101.182 108.169,120.836 88.507 C 124.853 84.488,128.063 81.200,127.968 81.201 C 127.873 81.203,121.497 87.527,113.799 95.255 M295.086 109.271 C 295.144 109.321,295.640 109.430,296.190 109.514 C 296.870 109.618,297.070 109.591,296.814 109.428 C 296.473 109.211,294.844 109.063,295.086 109.271 M95.784 113.266 C 94.426 114.699,93.055 116.334,92.738 116.899 C 91.932 118.332,92.202 118.181,93.245 116.615 C 93.726 115.893,95.102 114.311,96.302 113.099 C 97.503 111.887,98.433 110.842,98.369 110.778 C 98.305 110.714,97.142 111.834,95.784 113.266 M303.061 112.378 C 303.542 112.792,303.983 113.084,304.042 113.027 C 304.162 112.911,303.441 112.311,302.686 111.898 C 302.411 111.748,302.580 111.964,303.061 112.378 M305.602 114.866 C 305.952 115.244,306.536 116.000,306.898 116.548 C 307.261 117.095,307.558 117.452,307.558 117.342 C 307.558 117.117,306.124 114.973,305.651 114.491 C 305.031 113.859,304.987 114.201,305.602 114.866 M308.857 121.049 C 308.857 121.324,308.947 121.830,309.057 122.174 C 309.215 122.668,309.257 122.694,309.257 122.299 C 309.257 122.024,309.167 121.518,309.057 121.174 C 308.898 120.680,308.857 120.654,308.857 121.049 M90.818 121.674 C 90.723 122.106,90.698 122.511,90.761 122.575 C 90.825 122.639,90.949 122.332,91.037 121.893 C 91.245 120.851,91.043 120.649,90.818 121.674 M90.711 127.941 C 90.721 128.273,90.830 128.770,90.955 129.044 C 91.113 129.393,91.135 129.241,91.029 128.545 C 90.852 127.385,90.685 127.068,90.711 127.941 M308.946 128.309 C 308.852 128.810,308.825 129.270,308.886 129.331 C 308.947 129.392,309.074 129.032,309.168 128.531 C 309.262 128.029,309.289 127.569,309.228 127.508 C 309.167 127.447,309.040 127.807,308.946 128.309 M307.760 131.632 C 307.253 132.682,306.256 134.272,305.544 135.166 C 304.819 136.075,304.626 136.405,305.104 135.915 C 306.253 134.740,307.457 132.948,308.225 131.269 C 309.189 129.164,308.808 129.461,307.760 131.632 M92.615 132.976 C 93.045 133.745,106.100 147.158,106.419 147.158 C 106.503 147.158,103.679 144.241,100.144 140.675 C 96.608 137.110,93.414 133.737,93.046 133.180 C 92.244 131.967,91.984 131.844,92.615 132.976 M296.065 140.412 C 295.211 140.592,295.208 140.597,295.940 140.612 C 296.352 140.620,296.914 140.530,297.189 140.412 C 297.790 140.154,297.291 140.154,296.065 140.412 M144.285 140.825 C 144.285 140.861,152.672 149.300,162.923 159.577 C 182.334 179.037,182.472 179.190,183.645 182.450 C 183.905 183.170,184.121 183.544,184.126 183.279 C 184.131 183.014,183.673 181.833,183.107 180.655 L 182.080 178.513 163.182 159.637 C 152.789 149.255,144.285 140.790,144.285 140.825 M116.177 157.027 C 121.466 162.317,125.841 166.646,125.899 166.646 C 126.041 166.646,126.902 167.522,116.331 156.910 C 111.124 151.684,106.796 147.408,106.713 147.408 C 106.629 147.408,110.888 151.736,116.177 157.027 M126.171 166.885 C 126.171 167.534,160.715 201.392,161.042 201.065 C 161.105 201.002,160.671 200.645,160.079 200.271 C 159.487 199.896,151.616 192.200,142.587 183.168 C 133.558 174.135,126.171 166.808,126.171 166.885 M184.323 186.327 C 184.446 189.823,184.562 190.164,184.597 187.133 C 184.613 185.690,184.539 184.372,184.432 184.203 C 184.325 184.034,184.276 184.990,184.323 186.327 M184.010 190.631 C 183.915 191.063,183.890 191.468,183.953 191.532 C 184.017 191.596,184.141 191.288,184.229 190.849 C 184.316 190.411,184.342 190.005,184.285 189.948 C 184.229 189.892,184.105 190.199,184.010 190.631 M183.269 193.016 C 182.502 195.024,181.582 196.432,179.774 198.364 C 178.806 199.399,178.239 200.078,178.513 199.873 C 180.665 198.269,184.452 192.614,183.807 191.968 C 183.752 191.914,183.510 192.385,183.269 193.016 M165.291 202.904 C 165.365 203.025,165.944 203.123,166.577 203.123 C 167.210 203.123,167.682 203.082,167.624 203.031 C 167.389 202.824,165.167 202.703,165.291 202.904 M170.893 202.873 L 170.019 203.057 170.893 203.086 C 171.374 203.102,171.936 203.006,172.142 202.873 C 172.597 202.580,172.288 202.580,170.893 202.873 " stroke="none" fill="#a3a3a3" fill-rule="evenodd"></path><path id="path2" d="M167.958 46.900 C 168.335 46.957,168.954 46.957,169.332 46.900 C 169.710 46.843,169.400 46.796,168.645 46.796 C 167.889 46.796,167.580 46.843,167.958 46.900 M155.020 54.279 L 153.529 55.840 155.091 54.349 C 155.949 53.529,156.652 52.826,156.652 52.787 C 156.652 52.603,156.406 52.828,155.020 54.279 M144.529 64.772 L 142.286 67.083 144.597 64.840 C 146.744 62.756,147.022 62.461,146.841 62.461 C 146.803 62.461,145.763 63.501,144.529 64.772 M162.273 90.756 L 143.785 109.307 162.336 90.819 C 172.539 80.651,180.887 72.303,180.887 72.268 C 180.887 72.093,179.459 73.511,162.273 90.756 M135.281 74.016 L 134.041 75.328 135.353 74.088 C 136.572 72.936,136.779 72.705,136.593 72.705 C 136.553 72.705,135.963 73.295,135.281 74.016 M132.903 76.390 L 132.042 77.327 132.979 76.466 C 133.851 75.664,134.031 75.453,133.840 75.453 C 133.799 75.453,133.377 75.874,132.903 76.390 M124.540 84.760 L 122.798 86.571 124.610 84.829 C 126.292 83.211,126.535 82.948,126.352 82.948 C 126.314 82.948,125.499 83.763,124.540 84.760 M113.416 95.878 L 112.555 96.814 113.492 95.953 C 114.007 95.480,114.428 95.058,114.428 95.017 C 114.428 94.826,114.217 95.006,113.416 95.878 M104.550 104.747 L 103.310 106.059 104.622 104.819 C 105.344 104.137,105.934 103.547,105.934 103.507 C 105.934 103.321,105.702 103.528,104.550 104.747 M181.929 109.369 C 202.633 109.404,236.586 109.404,257.381 109.369 C 278.176 109.334,261.237 109.305,219.738 109.305 C 178.239 109.305,161.225 109.334,181.929 109.369 M90.751 123.423 C 90.751 123.904,90.803 124.101,90.866 123.860 C 90.928 123.620,90.928 123.226,90.866 122.986 C 90.803 122.745,90.751 122.942,90.751 123.423 M90.751 126.671 C 90.751 127.152,90.803 127.349,90.866 127.108 C 90.928 126.868,90.928 126.474,90.866 126.234 C 90.803 125.993,90.751 126.190,90.751 126.671 M94.691 135.244 C 94.691 135.287,95.056 135.652,95.503 136.056 L 96.315 136.790 95.581 135.978 C 94.897 135.221,94.691 135.051,94.691 135.244 M182.074 140.600 C 202.858 140.635,236.868 140.635,257.651 140.600 C 278.435 140.564,261.430 140.536,219.863 140.536 C 178.295 140.536,161.290 140.564,182.074 140.600 M145.534 142.411 C 146.489 143.373,147.326 144.160,147.394 144.160 C 147.463 144.160,146.738 143.373,145.784 142.411 C 144.829 141.449,143.992 140.662,143.923 140.662 C 143.855 140.662,144.580 141.449,145.534 142.411 M103.310 143.910 C 104.679 145.284,105.856 146.408,105.924 146.408 C 105.993 146.408,104.929 145.284,103.560 143.910 C 102.191 142.536,101.015 141.412,100.946 141.412 C 100.878 141.412,101.941 142.536,103.310 143.910 M152.280 149.157 C 154.888 151.768,157.078 153.904,157.147 153.904 C 157.216 153.904,155.138 151.768,152.530 149.157 C 149.922 146.546,147.731 144.410,147.663 144.410 C 147.594 144.410,149.672 146.546,152.280 149.157 M113.554 154.154 C 114.923 155.528,116.099 156.652,116.168 156.652 C 116.237 156.652,115.173 155.528,113.804 154.154 C 112.435 152.780,111.259 151.655,111.190 151.655 C 111.121 151.655,112.185 152.780,113.554 154.154 M167.395 164.272 C 172.684 169.563,177.068 173.891,177.137 173.891 C 177.206 173.891,172.934 169.563,167.645 164.272 C 162.356 158.982,157.972 154.653,157.904 154.653 C 157.835 154.653,162.106 158.982,167.395 164.272 M117.177 157.776 C 117.643 158.257,118.081 158.651,118.149 158.651 C 118.218 158.651,117.893 158.257,117.427 157.776 C 116.960 157.295,116.523 156.902,116.454 156.902 C 116.385 156.902,116.711 157.295,117.177 157.776 M121.174 161.774 C 121.640 162.255,122.078 162.648,122.147 162.648 C 122.215 162.648,121.890 162.255,121.424 161.774 C 120.958 161.293,120.520 160.899,120.452 160.899 C 120.383 160.899,120.708 161.293,121.174 161.774 M122.423 162.967 C 122.423 163.005,123.295 163.876,124.360 164.903 L 126.296 166.771 124.428 164.834 C 122.694 163.036,122.423 162.784,122.423 162.967 M128.045 168.645 C 128.999 169.606,129.837 170.394,129.905 170.394 C 129.974 170.394,129.249 169.606,128.295 168.645 C 127.340 167.683,126.503 166.896,126.434 166.896 C 126.366 166.896,127.090 167.683,128.045 168.645 M136.790 177.389 C 139.398 180.000,141.588 182.136,141.657 182.136 C 141.725 182.136,139.648 180.000,137.039 177.389 C 134.431 174.778,132.241 172.642,132.172 172.642 C 132.104 172.642,134.181 174.778,136.790 177.389 M179.013 175.890 C 179.968 176.852,180.805 177.639,180.874 177.639 C 180.942 177.639,180.217 176.852,179.263 175.890 C 178.308 174.928,177.471 174.141,177.403 174.141 C 177.334 174.141,178.059 174.928,179.013 175.890 M143.910 184.510 C 144.795 185.403,145.576 186.134,145.645 186.134 C 145.713 186.134,145.045 185.403,144.160 184.510 C 143.275 183.616,142.494 182.886,142.425 182.886 C 142.357 182.886,143.025 183.616,143.910 184.510 M147.533 188.132 C 148.487 189.094,149.325 189.881,149.393 189.881 C 149.462 189.881,148.737 189.094,147.783 188.132 C 146.828 187.171,145.991 186.384,145.922 186.384 C 145.854 186.384,146.578 187.171,147.533 188.132 M149.656 190.200 C 149.656 190.238,150.528 191.109,151.593 192.136 L 153.529 194.004 151.661 192.067 C 149.927 190.269,149.656 190.017,149.656 190.200 M156.027 196.627 C 157.396 198.001,158.573 199.126,158.641 199.126 C 158.710 199.126,157.646 198.001,156.277 196.627 C 154.908 195.253,153.732 194.129,153.663 194.129 C 153.595 194.129,154.658 195.253,156.027 196.627 M168.207 203.052 C 168.585 203.109,169.204 203.109,169.582 203.052 C 169.959 202.995,169.650 202.948,168.894 202.948 C 168.139 202.948,167.829 202.995,168.207 203.052 " stroke="none" fill="#747474" fill-rule="evenodd"></path><path id="path3" d="M165.646 47.220 L 165.022 47.421 165.646 47.428 C 165.990 47.432,166.496 47.339,166.771 47.220 L 167.270 47.006 166.771 47.013 C 166.496 47.017,165.990 47.110,165.646 47.220 M170.768 47.220 C 171.043 47.339,171.493 47.432,171.768 47.428 C 172.169 47.422,172.145 47.381,171.643 47.220 C 170.788 46.947,170.132 46.947,170.768 47.220 M162.204 48.385 C 161.754 48.607,161.426 48.830,161.476 48.880 C 161.583 48.987,163.148 48.235,163.148 48.077 C 163.148 47.925,163.115 47.936,162.204 48.385 M177.481 49.812 C 177.737 50.021,178.336 50.545,178.811 50.978 C 179.286 51.410,179.726 51.713,179.788 51.651 C 179.907 51.532,178.027 49.941,177.389 49.620 C 177.183 49.517,177.224 49.603,177.481 49.812 M126.670 82.886 L 94.066 115.553 126.786 82.948 C 144.781 65.016,159.556 50.315,159.619 50.281 C 159.682 50.247,159.630 50.219,159.504 50.219 C 159.378 50.219,144.603 64.919,126.670 82.886 M184.065 60.962 C 184.142 61.718,184.245 62.383,184.295 62.440 C 184.481 62.655,184.341 60.566,184.137 60.087 C 184.005 59.776,183.978 60.107,184.065 60.962 M184.169 63.710 C 184.146 64.054,184.070 64.616,184.000 64.959 L 183.871 65.584 184.139 64.969 C 184.287 64.631,184.363 64.069,184.309 63.720 L 184.210 63.086 184.169 63.710 M183.510 66.708 C 183.417 67.004,183.396 67.302,183.465 67.371 C 183.533 67.439,183.666 67.254,183.760 66.958 C 183.854 66.663,183.874 66.365,183.806 66.296 C 183.737 66.227,183.604 66.413,183.510 66.708 M182.261 69.706 C 182.048 70.119,181.930 70.456,181.998 70.456 C 182.067 70.456,182.298 70.119,182.511 69.706 C 182.724 69.294,182.842 68.957,182.774 68.957 C 182.705 68.957,182.474 69.294,182.261 69.706 M176.758 76.015 L 175.016 77.826 176.827 76.084 C 178.509 74.466,178.752 74.204,178.569 74.204 C 178.531 74.204,177.716 75.019,176.758 76.015 M166.763 86.009 L 165.272 87.570 166.833 86.079 C 167.692 85.259,168.395 84.556,168.395 84.518 C 168.395 84.333,168.148 84.558,166.763 86.009 M156.768 96.002 L 155.528 97.314 156.839 96.074 C 157.561 95.392,158.151 94.802,158.151 94.763 C 158.151 94.576,157.920 94.784,156.768 96.002 M146.024 106.746 L 144.785 108.057 146.096 106.818 C 147.315 105.666,147.522 105.434,147.336 105.434 C 147.296 105.434,146.706 106.024,146.024 106.746 M295.690 109.681 C 295.965 109.800,296.471 109.893,296.814 109.889 L 297.439 109.881 296.814 109.681 C 296.471 109.571,295.965 109.478,295.690 109.474 L 295.191 109.467 295.690 109.681 M301.312 111.508 C 301.312 111.566,301.790 111.929,302.374 112.314 C 302.958 112.699,303.303 112.855,303.142 112.660 C 302.832 112.284,301.312 111.328,301.312 111.508 M304.435 113.925 C 304.984 114.541,305.462 115.094,305.497 115.153 C 305.531 115.213,305.613 115.207,305.679 115.142 C 305.745 115.076,305.267 114.523,304.617 113.913 L 303.436 112.804 304.435 113.925 M91.349 120.559 C 91.263 120.783,91.205 121.209,91.219 121.507 C 91.235 121.849,91.320 121.728,91.449 121.176 C 91.668 120.247,91.608 119.883,91.349 120.559 M308.460 120.800 C 308.665 121.718,308.808 121.918,308.803 121.278 C 308.801 121.015,308.685 120.631,308.546 120.425 C 308.361 120.151,308.337 120.252,308.460 120.800 M309.134 124.797 C 309.136 125.621,309.182 125.929,309.238 125.480 C 309.294 125.031,309.292 124.356,309.235 123.981 C 309.178 123.605,309.133 123.973,309.134 124.797 M90.756 125.047 C 90.759 125.597,90.810 125.792,90.870 125.481 C 90.930 125.170,90.928 124.721,90.865 124.482 C 90.802 124.243,90.754 124.497,90.756 125.047 M104.060 144.410 C 109.555 149.906,114.108 154.403,114.176 154.403 C 114.245 154.403,109.805 149.906,104.310 144.410 C 98.815 138.913,94.262 134.416,94.193 134.416 C 94.125 134.416,98.565 138.913,104.060 144.410 M304.060 136.216 C 303.167 137.056,302.886 137.398,303.435 136.977 C 304.389 136.246,306.023 134.653,305.793 134.678 C 305.733 134.684,304.953 135.376,304.060 136.216 M301.062 138.436 C 300.647 138.775,300.605 138.860,300.937 138.688 C 301.752 138.267,302.204 137.921,301.936 137.923 C 301.799 137.924,301.405 138.155,301.062 138.436 M295.815 140.162 C 294.975 140.431,295.883 140.431,296.939 140.162 C 297.613 139.991,297.625 139.971,297.064 139.967 C 296.721 139.964,296.159 140.052,295.815 140.162 M147.033 144.160 C 148.264 145.397,149.327 146.408,149.396 146.408 C 149.465 146.408,148.514 145.397,147.283 144.160 C 146.052 142.923,144.989 141.911,144.920 141.911 C 144.851 141.911,145.802 142.923,147.033 144.160 M157.027 154.154 C 158.120 155.253,159.070 156.152,159.139 156.152 C 159.208 156.152,158.370 155.253,157.277 154.154 C 156.184 153.054,155.233 152.155,155.165 152.155 C 155.096 152.155,155.934 153.054,157.027 154.154 M119.300 159.650 C 122.046 162.399,124.349 164.647,124.418 164.647 C 124.486 164.647,122.296 162.399,119.550 159.650 C 116.805 156.902,114.502 154.653,114.433 154.653 C 114.364 154.653,116.555 156.902,119.300 159.650 M167.520 164.647 C 168.751 165.884,169.815 166.896,169.883 166.896 C 169.952 166.896,169.001 165.884,167.770 164.647 C 166.539 163.410,165.476 162.399,165.407 162.399 C 165.338 162.399,166.289 163.410,167.520 164.647 M134.416 174.766 C 139.843 180.194,144.339 184.635,144.407 184.635 C 144.476 184.635,140.092 180.194,134.666 174.766 C 129.239 169.338,124.743 164.897,124.674 164.897 C 124.606 164.897,128.989 169.338,134.416 174.766 M178.014 175.132 C 179.663 176.845,181.040 178.297,181.074 178.359 C 181.109 178.421,181.189 178.419,181.253 178.355 C 181.317 178.291,179.940 176.839,178.193 175.128 L 175.016 172.017 178.014 175.132 M184.010 187.231 C 184.010 188.814,184.086 189.918,184.180 189.683 C 184.394 189.145,184.389 185.701,184.172 184.931 C 184.083 184.613,184.010 185.648,184.010 187.231 M146.159 186.508 C 147.044 187.402,147.824 188.132,147.893 188.132 C 147.962 188.132,147.294 187.402,146.408 186.508 C 145.523 185.615,144.743 184.884,144.674 184.884 C 144.605 184.884,145.273 185.615,146.159 186.508 M153.654 194.004 C 156.743 197.096,159.328 199.625,159.396 199.625 C 159.465 199.625,156.993 197.096,153.904 194.004 C 150.814 190.912,148.230 188.382,148.162 188.382 C 148.093 188.382,150.564 190.912,153.654 194.004 M179.653 198.232 L 178.795 199.250 179.766 198.322 C 180.300 197.811,180.686 197.353,180.625 197.303 C 180.563 197.254,180.126 197.672,179.653 198.232 M176.140 200.897 C 175.725 201.236,175.683 201.321,176.015 201.149 C 176.830 200.728,177.282 200.382,177.014 200.384 C 176.877 200.385,176.483 200.616,176.140 200.897 M165.522 202.623 C 166.578 202.892,167.486 202.892,166.646 202.623 C 166.302 202.513,165.740 202.425,165.397 202.428 C 164.836 202.432,164.848 202.452,165.522 202.623 M170.893 202.623 C 170.399 202.782,170.373 202.823,170.768 202.823 C 171.043 202.823,171.549 202.733,171.893 202.623 C 172.387 202.465,172.413 202.423,172.017 202.423 C 171.743 202.423,171.237 202.513,170.893 202.623 " stroke="none" fill="#5c5c5c" fill-rule="evenodd"></path></g></svg>