<?xml version="1.0" encoding="UTF-8"?><svg id="uuid-09fdd104-6b29-435d-8dd5-4afde986370c" xmlns="http://www.w3.org/2000/svg" viewBox="0 0 472.45 499.23"><defs><style>.uuid-21d45d6c-d3c4-4207-bb2a-60c12964add3{fill:#fcb649;}.uuid-7261aeb3-d387-4056-b929-0dad85745470{fill:#fff;}.uuid-202e8d24-28a7-4471-b1fc-f9c7a3c2fd08{fill:#ee958d;}.uuid-de3bcfaf-067a-4b52-92cb-b23a9cc4a4e7{fill:#fde6e1;}.uuid-c29e3dd3-9c85-4a98-82cf-e60f9fe7eccd{fill:#d26362;}.uuid-2b230bff-e03b-4d83-8a18-ed34f504d7d8{fill:#531f4d;}</style></defs><circle class="uuid-de3bcfaf-067a-4b52-92cb-b23a9cc4a4e7" cx="236.22" cy="263.01" r="236.22"/><g><rect class="uuid-202e8d24-28a7-4471-b1fc-f9c7a3c2fd08" x="173.73" y="231.9" width="124.98" height="141.17"/><g><path class="uuid-202e8d24-28a7-4471-b1fc-f9c7a3c2fd08" d="m358.63,132.8c-6.89-16.48-20.98-8.39-20.98-8.39C345.78,49.47,307.67,0,236.22,0s-109.56,49.47-101.42,124.41c0,0-14.09-8.09-20.98,8.39s5.69,55.15,13.49,67.44c7.79,12.29,21.58,21.58,21.58,21.58,0,0,.9,13.79,4.5,23.38,3.6,9.59,44.36,53.69,56.35,60.43,15.72,9.25,38.87,9.25,52.98,0,11.99-6.74,52.75-50.84,56.35-60.43,3.6-9.59,4.5-23.38,4.5-23.38,0,0,13.79-9.29,21.58-21.58,7.79-12.29,20.38-50.95,13.49-67.44Z"/><g><path class="uuid-c29e3dd3-9c85-4a98-82cf-e60f9fe7eccd" d="m236.85,314.11c-9.82,0-19.85-2.37-27.92-7.12-7.26-4.08-23.95-20.78-36.37-34.57l2.36-2.12c12.65,14.03,28.94,30.2,35.6,33.94,15.2,8.95,37.74,8.97,51.33.06,6.76-3.8,23.04-19.97,35.69-34l2.36,2.12c-12.42,13.79-29.12,30.49-36.4,34.58-7.21,4.73-16.82,7.1-26.64,7.1Z"/><rect class="uuid-c29e3dd3-9c85-4a98-82cf-e60f9fe7eccd" x="145.32" y="189.55" width="3.17" height="32.39" transform="translate(-24.07 19.52) rotate(-7.03)"/><rect class="uuid-c29e3dd3-9c85-4a98-82cf-e60f9fe7eccd" x="309.31" y="204.15" width="32.34" height="3.18" transform="translate(85.01 506.48) rotate(-83.65)"/><g><path class="uuid-c29e3dd3-9c85-4a98-82cf-e60f9fe7eccd" d="m123.03,169.86c-.67-2.43-6.28-23.91,1.47-29.78,2.56-1.67,4.65-1.5,5.98-1.07,3.95,1.28,5.91,6.16,6.13,6.71l-2.96,1.14c-.43-1.11-2.02-4.15-4.15-4.83-.97-.32-2.02-.11-3.17.65-4.46,3.39-2.53,17.97-.24,26.35l-3.06.84Z"/><path class="uuid-c29e3dd3-9c85-4a98-82cf-e60f9fe7eccd" d="m349.42,169.86l-3.06-.84c2.29-8.38,4.23-22.96-.33-26.41-1.07-.69-2.1-.9-3.08-.58-2.55.83-4.13,4.79-4.14,4.83l-2.97-1.14c.21-.55,2.18-5.43,6.13-6.71,1.32-.43,3.42-.6,5.88,1,7.84,5.94,2.23,27.42,1.56,29.85Z"/></g></g><path class="uuid-2b230bff-e03b-4d83-8a18-ed34f504d7d8" d="m144.93,163.82c21.2.11,5.17-68.32,21.8-84.88,8.45-8.42,20.8-7.05,31.38-4.35,12.33,3.14,25.06,7.39,38.06,7.73,13.77.36,26.83-4.68,40.03-7.88,10.25-2.48,21.39-3.58,29.5,4.5,16.63,16.56.6,84.99,21.8,84.88-1.47-15.82-1.51-33.16,10.13-39.41v-.02C345.77,49.46,307.67,0,236.22,0s-109.56,49.47-101.42,124.41h0c9.45,6.14,11.61,22.86,10.13,39.41Z"/></g><path class="uuid-21d45d6c-d3c4-4207-bb2a-60c12964add3" d="m438.12,385.71c-66.7-29.76-139.4-40.31-139.4-40.31-33.36,34.78-95.49,35.27-124.98,0,0,0-72.7,10.55-139.4,40.31,41.46,68.07,116.36,113.52,201.89,113.52s160.43-45.46,201.89-113.52Z"/><polygon class="uuid-7261aeb3-d387-4056-b929-0dad85745470" points="156.85 347.81 173.73 317.52 228.41 366.6 194.96 403.25 156.85 347.81"/><polygon class="uuid-7261aeb3-d387-4056-b929-0dad85745470" points="315.53 347.81 298.65 317.52 243.98 366.6 277.43 403.25 315.53 347.81"/></g></svg>