<?xml version="1.0" encoding="UTF-8"?><svg xmlns="http://www.w3.org/2000/svg" viewBox="0 0 111.41 114.12"><defs><style>.uuid-dcd53531-8c11-4ce4-8b13-c5dab8931a92{fill:#fff;}.uuid-3390d318-86eb-457a-b76c-20e8eb88c2f1{fill:#d85d63;}.uuid-90255488-415d-4ebd-9c61-0390416c24db{fill:#c46966;}.uuid-da3481f4-9df2-40ce-b94e-7593419bcb82{fill:#e2988f;}.uuid-e93edb2b-a810-470d-ad22-d69e5ddd790a{fill:#fce8e3;}.uuid-61979097-e834-4c6b-9583-c4c5275aab5b{fill:#4c224b;}</style></defs><g id="uuid-29a46fd4-5c10-4a27-b1a3-43c4f8016949"><rect class="uuid-dcd53531-8c11-4ce4-8b13-c5dab8931a92" x="-194.2" y="-34.65" width="500" height="500"/></g><g id="uuid-340bd286-f0c2-4e0f-8709-21f0a45dbd4e"><g><circle class="uuid-e93edb2b-a810-470d-ad22-d69e5ddd790a" cx="55.82" cy="58.36" r="55.82"/><g><path class="uuid-61979097-e834-4c6b-9583-c4c5275aab5b" d="m88.32,53.89C92.27,30.91,82.81,1.69,56.78.02c-8.3-.53-16.41,2.52-20.6,8.41-14.36,5.66-15.57,30.88-13.96,39.56,4.4,23.8-16.81,19.7-11.43,42.04l44.33-2.44h1.7l43.54.56c3.67-16.85-13.84-15.72-12.05-34.26Z"/><rect class="uuid-da3481f4-9df2-40ce-b94e-7593419bcb82" x="42.72" y="51.01" width="26.15" height="33.36"/><path class="uuid-3390d318-86eb-457a-b76c-20e8eb88c2f1" d="m103.79,86.9c-12.31-5.17-34.76-9.07-34.76-9.07-8.62,7.26-19.52,7.21-26.3,0,0,0-22.74,3.37-35.57,7.86,9.17,16.29,26.27,27.52,46.08,28.42.89.03,1.77.06,2.67.06,20.37-.03,38.17-10.97,47.89-27.28Z"/><g><path class="uuid-dcd53531-8c11-4ce4-8b13-c5dab8931a92" d="m78.94,46.98c-.97,0-1.76,1.41-1.76,3.14s.79,3.14,1.76,3.14,1.76-1.41,1.76-3.14-.79-3.14-1.76-3.14Zm0,4.91c-.67,0-1.21-.97-1.21-2.16s.54-2.16,1.21-2.16,1.21.97,1.21,2.16-.54,2.16-1.21,2.16Z"/><path class="uuid-dcd53531-8c11-4ce4-8b13-c5dab8931a92" d="m30.8,50.12c0,1.73.79,3.14,1.76,3.14s1.76-1.41,1.76-3.14-.79-3.14-1.76-3.14-1.76,1.41-1.76,3.14Zm.55-.4c0-1.19.54-2.16,1.21-2.16s1.21.97,1.21,2.16-.54,2.16-1.21,2.16-1.21-.97-1.21-2.16Z"/><path class="uuid-da3481f4-9df2-40ce-b94e-7593419bcb82" d="m55.77,10.62h0c-16.86.02-20.69,12.64-20.34,25.35,0,9.16-.06,15.92.79,18.18.85,2.26,6.76,15.89,19.54,15.92h0c12.78-.02,18.69-13.65,19.54-15.92.85-2.27.8-9.02.8-18.18.35-12.71-3.48-25.33-20.34-25.35Z"/><path class="uuid-90255488-415d-4ebd-9c61-0390416c24db" d="m55.77,70.45c-5.01,0-9.53-2.05-13.44-6.05l.54-.52c3.76,3.86,8.1,5.82,12.9,5.83,4.72,0,9-1.91,12.72-5.64l.53.53c-3.86,3.88-8.32,5.85-13.25,5.86Z"/><path class="uuid-da3481f4-9df2-40ce-b94e-7593419bcb82" d="m36.17,35.53s-3.39-4.99-6.87-2.07c-3.48,2.92-.09,19.48,6.87,16.56,6.96-2.92,0-14.49,0-14.49Z"/><path class="uuid-da3481f4-9df2-40ce-b94e-7593419bcb82" d="m75.43,35.53s3.39-4.99,6.87-2.07c3.48,2.92.09,19.48-6.87,16.56-6.96-2.92,0-14.49,0-14.49Z"/><rect class="uuid-90255488-415d-4ebd-9c61-0390416c24db" x="35.06" y="44.86" width=".75" height="5.37" transform="translate(-3.42 2.75) rotate(-4.24)"/><rect class="uuid-90255488-415d-4ebd-9c61-0390416c24db" x="73.18" y="46.87" width="5.94" height=".75" transform="translate(23.38 119.68) rotate(-85.74)"/><path class="uuid-90255488-415d-4ebd-9c61-0390416c24db" d="m31.03,42.04c-.8-2.66-.81-4.51-.02-5.49.58-.73,1.39-.69,1.42-.69l-.05.75.02-.37-.02.37s-.46-.02-.8.42c-.34.44-.78,1.66.16,4.8l-.72.22Z"/><path class="uuid-90255488-415d-4ebd-9c61-0390416c24db" d="m80.85,42.04l-.72-.22c.94-3.14.51-4.35.16-4.8-.34-.44-.78-.42-.8-.42l-.04-.75s.83-.05,1.42.69c.79.99.78,2.84-.02,5.49Z"/><path class="uuid-dcd53531-8c11-4ce4-8b13-c5dab8931a92" d="m34.05,50.94c-.12,0-.25-.02-.36-.04-.03,0-.06-.03-.08-.05-.21.62-.59,1.04-1.03,1.04-.67,0-1.21-.97-1.21-2.16s.54-2.15,1.2-2.16c.4-.05.3-.6,0-.58-.97,0-1.76,1.41-1.76,3.14s.79,3.14,1.76,3.14c.81,0,1.49-.99,1.7-2.32-.07,0-.14,0-.22,0Z"/><path class="uuid-dcd53531-8c11-4ce4-8b13-c5dab8931a92" d="m78.95,46.98c-.3-.01-.4.54,0,.58.67,0,1.2.97,1.2,2.16s-.54,2.16-1.21,2.16c-.37,0-.7-.31-.92-.79-.06.05-.12.1-.19.15-.15.09-.3.18-.46.27.29,1.03.88,1.75,1.57,1.75.97,0,1.76-1.41,1.76-3.14s-.78-3.13-1.76-3.14Z"/><path class="uuid-61979097-e834-4c6b-9583-c4c5275aab5b" d="m35.32,34.51c-.16-8.93,6.51-13.57,6.51-13.57,6,10.52,22.54,14.09,37.65,8.87,0,0-1.47-25.27-25.07-23.79-23.6,1.48-19.08,28.48-19.08,28.48Z"/></g></g></g></g></svg>