<?xml version="1.0" encoding="UTF-8"?><svg xmlns="http://www.w3.org/2000/svg" viewBox="0 0 111.41 120.04"><defs><style>.uuid-067c522d-1181-447d-91d4-86e6f88cc79e{fill:#fff;}.uuid-ef959bbb-95b6-4e89-833c-56a4204b6914{fill:#c46966;}.uuid-d9869a12-3165-4b1e-acbb-1953994f8fb0{fill:#703870;}.uuid-92eed126-4261-406d-be2a-68732eb9429e{fill:#e2988f;}.uuid-a35ea3c2-ea06-4ae5-aecb-cdb4378aa7c0{fill:#fce8e3;}.uuid-33b389ce-6b5e-4f32-9b57-2f823881731f{fill:#4c224b;}.uuid-1b4241a6-0d90-4067-a965-1e90012faafd{fill:#f4ba5d;}</style></defs><g id="uuid-7847aa9e-a856-4e69-8973-85eff2d3c3cd"><rect class="uuid-067c522d-1181-447d-91d4-86e6f88cc79e" x="-194.2" y="-34.65" width="500" height="500"/></g><g id="uuid-f227edee-0861-48b8-96fb-ab222d366ea3"><g><circle class="uuid-a35ea3c2-ea06-4ae5-aecb-cdb4378aa7c0" cx="56.6" cy="64.28" r="55.82" transform="translate(-28.88 58.85) rotate(-45)"/><g><path class="uuid-33b389ce-6b5e-4f32-9b57-2f823881731f" d="m93.12,93.75c15.76-10.69,6.36-28.23-7.92-51.72-2.06-3.39-3.38-7.16-4.18-11.05-2.33-11.38-12.4-19.95-24.47-19.95s-22.31,8.7-24.53,20.23c-.77,4.01-2.04,7.91-3.95,11.52-13.13,24.84-25.98,44.86-7.22,50.98h72.28Z"/><rect class="uuid-92eed126-4261-406d-be2a-68732eb9429e" x="43.5" y="56.93" width="26.15" height="33.36"/><g><path class="uuid-1b4241a6-0d90-4067-a965-1e90012faafd" d="m104.57,92.82c-12.31-5.17-34.76-9.07-34.76-9.07-8.62,7.26-19.52,7.21-26.3,0,0,0-22.74,3.37-35.57,7.86,9.17,16.29,26.27,27.52,46.08,28.42.89.03,1.77.06,2.67.06,20.37-.03,38.17-10.97,47.89-27.28Z"/><path class="uuid-067c522d-1181-447d-91d4-86e6f88cc79e" d="m43.5,79.96l-5.15,4.62s3.01,12.96,9.15,13.2,9.05-8.62,9.05-8.62c-5.87-1.57-10.21-4.64-13.04-9.21Z"/><path class="uuid-067c522d-1181-447d-91d4-86e6f88cc79e" d="m69.64,79.96l5.15,4.62s-3.01,12.96-9.15,13.2-9.05-8.62-9.05-8.62c5.87-1.57,10.21-4.64,13.04-9.21Z"/></g><g><circle class="uuid-33b389ce-6b5e-4f32-9b57-2f823881731f" cx="56.57" cy="12.51" r="12" transform="translate(35.16 66.35) rotate(-80.78)"/><g><path class="uuid-92eed126-4261-406d-be2a-68732eb9429e" d="m56.54,16.54h0c-16.86.02-20.69,12.64-20.34,25.35,0,9.16-.65,12.13.2,14.4.47,3.23,7.03,19.7,20.13,19.7s19.1-15.6,20.26-19.7c.85-2.27.08-5.24.08-14.4.35-12.71-3.48-25.33-20.34-25.35Z"/><path class="uuid-ef959bbb-95b6-4e89-833c-56a4204b6914" d="m56.54,76.37c-4.91,0-9.39-2.22-13.32-6.6l.56-.5c3.78,4.21,8.08,6.35,12.76,6.35s9.11-2.13,12.83-6.33l.56.5c-3.87,4.37-8.37,6.58-13.39,6.58Z"/><path class="uuid-92eed126-4261-406d-be2a-68732eb9429e" d="m36.94,42.19s-3.39-4.37-6.87-1.81c-3.48,2.56-.09,17.07,6.87,14.52,6.96-2.56,0-12.7,0-12.7Z"/><path class="uuid-92eed126-4261-406d-be2a-68732eb9429e" d="m76.2,42.19s3.39-4.37,6.87-1.81c3.48,2.56.09,17.07-6.87,14.52-6.96-2.56,0-12.7,0-12.7Z"/><rect class="uuid-ef959bbb-95b6-4e89-833c-56a4204b6914" x="35.32" y="48.92" width=".75" height="6.3" transform="translate(-6.85 5.43) rotate(-7.94)"/><rect class="uuid-ef959bbb-95b6-4e89-833c-56a4204b6914" x="74.35" y="51.7" width="6.27" height=".75" transform="translate(18.46 124.4) rotate(-84.69)"/><path class="uuid-ef959bbb-95b6-4e89-833c-56a4204b6914" d="m31.81,47.91c-.77-2.24-.81-3.85-.12-4.76.59-.78,1.47-.73,1.5-.73l-.04.75.02-.37-.02.37s-.53-.01-.88.45c-.36.49-.61,1.58.24,4.05l-.71.24Z"/><path class="uuid-ef959bbb-95b6-4e89-833c-56a4204b6914" d="m81.61,47.91l-.71-.24c.85-2.48.59-3.58.23-4.06-.34-.45-.86-.44-.87-.44l-.04-.75s.92-.04,1.5.73c.69.91.65,2.51-.12,4.76Z"/><path class="uuid-067c522d-1181-447d-91d4-86e6f88cc79e" d="m81.49,54.3c0,.86-.7,1.55-1.55,1.55s-1.55-.7-1.55-1.55.7-1.55,1.55-1.55,1.55.7,1.55,1.55Z"/><path class="uuid-067c522d-1181-447d-91d4-86e6f88cc79e" d="m34.9,54.3c0,.86-.7,1.55-1.55,1.55s-1.55-.7-1.55-1.55.7-1.55,1.55-1.55,1.55.7,1.55,1.55Z"/></g><path class="uuid-33b389ce-6b5e-4f32-9b57-2f823881731f" d="m35.37,35.79c13.37,2.83,27.46,3.04,42.41,0,0,0,.28-20.64-20.64-21.33-20.92-.68-21.77,21.33-21.77,21.33Z"/><path class="uuid-d9869a12-3165-4b1e-acbb-1953994f8fb0" d="m68.27,14.38c-7.79-3.04-15.68-3.04-23.47,0l-.27-.7c7.97-3.12,16.05-3.12,24.02,0l-.27.7Z"/><path class="uuid-d9869a12-3165-4b1e-acbb-1953994f8fb0" d="m78.4,35.51c-.56-5.85-2.61-10.97-6.1-15.23l.58-.48c3.58,4.38,5.69,9.64,6.26,15.64l-.75.07Z"/><path class="uuid-d9869a12-3165-4b1e-acbb-1953994f8fb0" d="m35.28,35.51l-.75-.07c.57-6,2.68-11.26,6.26-15.64l.58.48c-3.49,4.26-5.54,9.39-6.1,15.23Z"/><path class="uuid-d9869a12-3165-4b1e-acbb-1953994f8fb0" d="m42.07,36.96l-.75-.06c.27-3.28.94-6.61,2-9.89l.71.23c-1.04,3.22-1.71,6.49-1.97,9.72Z"/><path class="uuid-d9869a12-3165-4b1e-acbb-1953994f8fb0" d="m68.95,37.29l-.75-.03c.08-2.22-.28-4.85-1.05-7.84l.73-.19c.79,3.05,1.16,5.76,1.08,8.05Z"/><path class="uuid-d9869a12-3165-4b1e-acbb-1953994f8fb0" d="m66.41,26.92c-.55-1.72-1.03-2.86-1.03-2.87l.69-.29s.49,1.18,1.05,2.93l-.71.23Z"/></g></g></g></g></svg>