<?xml version="1.0" encoding="UTF-8"?><svg xmlns="http://www.w3.org/2000/svg" viewBox="0 0 111.41 119.29"><defs><style>.uuid-3c443af1-215f-412a-babe-ec1b36777c70{fill:#6c82bc;}.uuid-5abe156a-4e86-4d37-863e-e6624e5fe410{fill:#fff;}.uuid-0f353baa-3944-4200-a9a4-99f87e2ac5bf{fill:#c46966;}.uuid-4d2b9eb1-8067-4cb3-878e-78065cc9fbb2{fill:#94a5e4;}.uuid-6418a41c-c7ed-4e3d-ba4e-332835bc3158{fill:#e2988f;}.uuid-5a81a65d-ba9a-4c97-917b-74843d210a33{fill:#fce8e3;}.uuid-36a28fd8-35f4-4c50-ae27-0d528105091d{fill:#4c224b;}</style></defs><g id="uuid-2b82ff6a-c117-4072-8109-be692eee1ea6"><rect class="uuid-5abe156a-4e86-4d37-863e-e6624e5fe410" x="-194.2" y="-35.4" width="500" height="500"/></g><g id="uuid-75da3c5b-6e6b-4b08-9be8-44fc4ee7c775"><g><circle class="uuid-5a81a65d-ba9a-4c97-917b-74843d210a33" cx="55.88" cy="62.03" r="55.82"/><g><ellipse class="uuid-4d2b9eb1-8067-4cb3-878e-78065cc9fbb2" cx="55.71" cy="74.9" rx="16.66" ry="2.36"/><rect class="uuid-6418a41c-c7ed-4e3d-ba4e-332835bc3158" x="41.11" y="54.68" width="29.53" height="33.36"/><g><path class="uuid-6418a41c-c7ed-4e3d-ba4e-332835bc3158" d="m85.7,33.06c-1.68-4.02-5.11-2.04-5.11-2.04,1.98-18.26-7.3-30.31-24.71-30.31s-26.69,12.05-24.71,30.31c0,0-3.43-1.97-5.11,2.04s1.39,13.43,3.29,16.43c1.9,2.99,5.26,5.26,5.26,5.26,0,0,.22,3.36,1.1,5.7.88,2.34,10.81,13.08,13.73,14.72,3.83,2.25,9.47,2.25,12.91,0,2.92-1.64,12.85-12.39,13.73-14.72.88-2.34,1.1-5.7,1.1-5.7,0,0,3.36-2.26,5.26-5.26,1.9-2.99,4.96-12.41,3.29-16.43Z"/><g><path class="uuid-0f353baa-3944-4200-a9a4-99f87e2ac5bf" d="m28.32,42.09c-.16-.59-1.53-5.82.35-7.24.62-.4,1.13-.36,1.45-.26.97.32,1.46,1.57,1.49,1.63l-.7.27c-.11-.27-.49-1.02-1.02-1.18-.24-.08-.5-.03-.78.16-1.09.83-.62,4.39-.06,6.43l-.72.2Z"/><path class="uuid-0f353baa-3944-4200-a9a4-99f87e2ac5bf" d="m83.44,42.09l-.72-.2c.4-1.47,1.17-5.5-.08-6.45-.26-.17-.52-.22-.76-.14-.52.17-.91.91-1.02,1.18l-.7-.27c.02-.05.51-1.31,1.49-1.63.32-.1.83-.15,1.42.24,1.9,1.44.54,6.67.38,7.26Z"/></g><path class="uuid-36a28fd8-35f4-4c50-ae27-0d528105091d" d="m55.88.71c-17.41,0-26.69,12.05-24.71,30.31h0c2.3,1.5,2.83,5.57,2.47,9.6h0s-.77,12.83,1.76,18.89c2.52,6.05,6.92,15.51,20.48,15.4h0s0,0,0,0h0c13.56.12,17.96-9.34,20.48-15.4,2.52-6.05,1.76-18.89,1.76-18.89h0s0,0,0,0c-.36-3.85-.37-8.08,2.47-9.6h0c1.98-18.26-7.3-30.31-24.71-30.31Zm19.05,28.05s-.34,16.75-2.92,20.42c-2.59,3.67-1.78-4.47-16.12-4.61-14.34-.14-13.54,8.28-16.13,4.61-2.58-3.66-2.92-20.35-2.92-20.42.17-3.7.53-7.24,2.12-8.82,2.06-2.05,5.07-1.72,7.64-1.06,3,.77,6.1,1.8,9.27,1.88,3.35.09,6.54-1.14,9.75-1.92,2.5-.6,5.21-.87,7.19,1.1,1.59,1.59,1.95,5.12,2.12,8.83h0Z"/></g><path class="uuid-4d2b9eb1-8067-4cb3-878e-78065cc9fbb2" d="m106.39,85.8c-13.99-3.39-34.03-4.3-34.03-4.3-10.34,8.22-24.17,8.33-33.32,0,0,0-19.67,1.28-33.55,4.58,8.98,18.79,28.17,31.77,50.38,31.77h0c22.33,0,41.58-13.11,50.51-32.05Z"/><path class="uuid-4d2b9eb1-8067-4cb3-878e-78065cc9fbb2" d="m39.05,74.9v8.35c11.82,8.72,22.94,8.84,33.32,0v-8.35c-5.88,3.81-29.55,3.29-33.32,0Z"/><path class="uuid-3c443af1-215f-412a-babe-ec1b36777c70" d="m55.31,86.62c-1.62,0-3.23-.07-4.79-.21-3.09-.27-10.43-1.26-11.82-4.55l.69-.29c.85,2.02,5.04,3.55,11.2,4.09,8.54.75,19.17-.62,21.46-4.15l.63.41c-2.04,3.15-9.72,4.69-17.37,4.69Z"/><path class="uuid-3c443af1-215f-412a-babe-ec1b36777c70" d="m55.37,79.67c-3.03,0-5.98-.14-8.39-.4-4.24-.45-6.77-1.19-7.53-2.21l.6-.45c.28.38,1.54,1.33,7.01,1.91,8.68.92,21.89.18,24.35-1.97l.49.56c-2.06,1.8-9.51,2.55-16.54,2.55Z"/></g></g></g></svg>